<svg xmlns="http://www.w3.org/2000/svg" viewBox="0 0 500 500"><g id="freepik--background-simple--inject-33"><path d="M410.88,135.8C381.33,102.25,335.15,84.39,291.46,80a346.63,346.63,0,0,0-38.53-1.63c-126.85,1.35-164,56-155.87,82.32s31,42.51-2,78.94S24.86,330.69,43.76,385.35s97.16,97.16,210.52,90.41,186.9-7.42,210.52-58-28-85.32-35.27-128.69c-4.49-26.89,7.05-54,7.89-80.81C438.33,179.26,427.87,155.09,410.88,135.8Z" style="fill:#F4F4ED"></path><path d="M410.88,135.8C381.33,102.25,335.15,84.39,291.46,80a346.63,346.63,0,0,0-38.53-1.63c-126.85,1.35-164,56-155.87,82.32s31,42.51-2,78.94S24.86,330.69,43.76,385.35s97.16,97.16,210.52,90.41,186.9-7.42,210.52-58-28-85.32-35.27-128.69c-4.49-26.89,7.05-54,7.89-80.81C438.33,179.26,427.87,155.09,410.88,135.8Z" style="fill:#fff;opacity:0.7000000000000001"></path></g><g id="freepik--Floor--inject-33"><line x1="23.51" y1="461.15" x2="472.22" y2="461.15" style="fill:none;stroke:#263238;stroke-miterlimit:10"></line></g><g id="freepik--Device--inject-33"><rect x="158.04" y="21.07" width="194.04" height="411.91" rx="25.7" style="fill:#263238;stroke:#263238;stroke-miterlimit:10"></rect><path d="M345.32,49.73V404.32a22.25,22.25,0,0,1-22.25,22.25h-136a21.61,21.61,0,0,1-3-.21,22.25,22.25,0,0,1-19.23-22V49.73a22.26,22.26,0,0,1,22.26-22.25H191c12.23,0,24.49.23,36.71,0,0,.08-.08.23-.05.35,3.34-.52,8.54.92,11,3.33,3.84,3.84,8.33,9.09,14.19,9.7,6.13.63,11-4.33,15-8.27,4.48-4.43,10.46-5.1,16.52-5.1h38.76A22.25,22.25,0,0,1,345.32,49.73Z" style="fill:#F4F4ED"></path><path d="M345.32,49.73V94.94c-19.45,23.43-66.81,53.6-120.66,81.77-29.15,15.26-47.93,29.64-59.86,41.06V108.51q2.52-3.57,5.46-7.29c23.56-29.73,80.7-48.8,121-73.74h31.79A22.25,22.25,0,0,1,345.32,49.73Z" style="fill:#fff;opacity:0.30000000000000004"></path><path d="M345.32,181.42V319.56c-19.45,23.43-66.81,53.6-120.66,81.77a311.72,311.72,0,0,0-40.63,25,22.25,22.25,0,0,1-19.23-22V333.13q2.52-3.57,5.46-7.29c33-41.67,132-62.41,158.19-107.71C335.48,206,341.28,192.17,345.32,181.42Z" style="fill:#fff;opacity:0.30000000000000004"></path><circle cx="253.91" cy="32.32" r="3.92" style="fill:#7d7d7d;stroke:#fff;stroke-miterlimit:10"></circle><path d="M352,139.57h0V88.3h0a3.51,3.51,0,0,1,3.51,3.51v44.24A3.52,3.52,0,0,1,352,139.57Z" style="fill:#263238;stroke:#263238;stroke-miterlimit:10"></path><path d="M352,183.75h0V158.17h0a3.51,3.51,0,0,1,3.51,3.51v18.56A3.51,3.51,0,0,1,352,183.75Z" style="fill:#263238;stroke:#263238;stroke-miterlimit:10"></path><rect x="178.68" y="245.58" width="156.21" height="22.74" rx="11.37" style="fill:#fff;stroke:#263238;stroke-miterlimit:10"></rect><circle cx="192.36" cy="307.56" r="12.9" transform="translate(-63.43 50.33) rotate(-12.82)" style="fill:#fff;stroke:#263238;stroke-miterlimit:10"></circle><circle cx="234.43" cy="307.56" r="12.9" transform="translate(-148.82 255.85) rotate(-45)" style="fill:#fff;stroke:#263238;stroke-miterlimit:10"></circle><circle cx="276.5" cy="307.56" r="12.9" transform="translate(-63.58 72.2) rotate(-13.36)" style="fill:#fff;stroke:#263238;stroke-miterlimit:10"></circle><circle cx="318.57" cy="307.56" r="12.9" transform="translate(-86.92 485.5) rotate(-67.69)" style="fill:#fff;stroke:#263238;stroke-miterlimit:10"></circle><circle cx="192.36" cy="364.42" r="12.9" transform="translate(-76.04 51.75) rotate(-12.82)" style="fill:#fff;stroke:#263238;stroke-miterlimit:10"></circle><circle cx="234.43" cy="364.42" r="12.9" transform="translate(-189.02 272.5) rotate(-45)" style="fill:#fff;stroke:#263238;stroke-miterlimit:10"></circle><circle cx="276.5" cy="364.42" r="12.9" transform="translate(-76.71 73.74) rotate(-13.36)" style="fill:#fff;stroke:#263238;stroke-miterlimit:10"></circle><circle cx="318.57" cy="364.42" r="12.9" transform="translate(-139.52 520.77) rotate(-67.69)" style="fill:#fff;stroke:#263238;stroke-miterlimit:10"></circle><circle cx="256.79" cy="137.26" r="49.08" style="fill:none;stroke:#fff;stroke-miterlimit:10"></circle><path d="M235.76,146.46V128.81a1.58,1.58,0,0,1-.59.45,6.67,6.67,0,0,1-1,.39l-1,.31a4.76,4.76,0,0,1-.56.16v-1.46a8,8,0,0,0,.82-.28,6,6,0,0,0,.94-.49,8.28,8.28,0,0,0,.92-.67,4.5,4.5,0,0,0,.79-.84h1.47v20.08Z" style="fill:#263238"></path><path d="M244.86,146.46V128.81a1.55,1.55,0,0,1-.6.45,6.13,6.13,0,0,1-1,.39l-1,.31a5.4,5.4,0,0,1-.56.16v-1.46c.23-.06.5-.16.82-.28a6,6,0,0,0,.94-.49,8.28,8.28,0,0,0,.92-.67,4.5,4.5,0,0,0,.79-.84h1.46v20.08Z" style="fill:#263238"></path><path d="M251.5,136v-2.66h1.94V136Zm0,8.42v-2.65h1.94v2.65Z" style="fill:#263238"></path><path d="M260.48,146.71a4.92,4.92,0,0,1-2.56-.6,3.48,3.48,0,0,1-1.45-1.69,6.85,6.85,0,0,1-.45-2.59v-.5h1.73v.42a6.24,6.24,0,0,0,.29,1.85,2.32,2.32,0,0,0,.85,1.2,2.72,2.72,0,0,0,1.59.42,2.91,2.91,0,0,0,1.6-.41,2.46,2.46,0,0,0,1-1.35,7.55,7.55,0,0,0,.33-2.45,6.08,6.08,0,0,0-.67-3,2.56,2.56,0,0,0-2.33-1.23h-.49V135h.49a2.71,2.71,0,0,0,2.31-.91,4.83,4.83,0,0,0,.69-2.91,5,5,0,0,0-.58-2.55,2.27,2.27,0,0,0-2.14-1,2.66,2.66,0,0,0-2.2.85,4.42,4.42,0,0,0-.73,2.64v.35H256V131a6.64,6.64,0,0,1,.45-2.57,3.43,3.43,0,0,1,1.5-1.67,5.34,5.34,0,0,1,2.68-.6,4.75,4.75,0,0,1,2.6.65,3.82,3.82,0,0,1,1.5,1.77,6.4,6.4,0,0,1,.49,2.59,5.77,5.77,0,0,1-.79,3.26,3.4,3.4,0,0,1-2.06,1.45,3.38,3.38,0,0,1,1.39.79,4.34,4.34,0,0,1,1.05,1.65,7.47,7.47,0,0,1,.41,2.64,8.85,8.85,0,0,1-.47,3,4,4,0,0,1-1.53,2A4.79,4.79,0,0,1,260.48,146.71Z" style="fill:#263238"></path><path d="M272.5,146.69a4.82,4.82,0,0,1-2.59-.62,3.54,3.54,0,0,1-1.42-1.84,8.51,8.51,0,0,1-.45-2.95h1.81a8.73,8.73,0,0,0,.23,2.11,2.34,2.34,0,0,0,2.5,1.86,2.32,2.32,0,0,0,1.73-.6,3.23,3.23,0,0,0,.82-1.73,14.85,14.85,0,0,0,.22-2.8,12.75,12.75,0,0,0-.26-2.93,2.73,2.73,0,0,0-.86-1.57,2.51,2.51,0,0,0-1.63-.49,2.68,2.68,0,0,0-1.44.42,3.87,3.87,0,0,0-1.16,1.24h-1.51V126.38h7.8l0,1.71H270.1l-.1,7a3.72,3.72,0,0,1,1.2-.94,3.92,3.92,0,0,1,1.87-.4,3.67,3.67,0,0,1,2.39.74,4.14,4.14,0,0,1,1.31,2.12,12.27,12.27,0,0,1,.39,3.31,15.65,15.65,0,0,1-.24,2.9,6.07,6.07,0,0,1-.81,2.13,3.65,3.65,0,0,1-1.44,1.32A4.74,4.74,0,0,1,272.5,146.69Z" style="fill:#263238"></path><rect x="310.04" y="35.77" width="17" height="9.32" style="fill:none;stroke:#263238;stroke-linecap:round;stroke-linejoin:round;stroke-width:0.821067px"></rect><rect x="310.04" y="35.77" width="13.26" height="9.32" style="fill:#263238;stroke:#263238;stroke-linecap:round;stroke-linejoin:round;stroke-width:0.725073px"></rect><rect x="327" y="38.37" width="2.39" height="4.11" style="fill:#263238;stroke:#263238;stroke-linecap:round;stroke-linejoin:round;stroke-width:0.725073px"></rect><rect x="176.61" y="38.66" width="3.12" height="5.34" style="fill:#263238;stroke:#263238;stroke-linecap:round;stroke-linejoin:round;stroke-width:0.8830859999999999px"></rect><rect x="181.51" y="36.78" width="3.12" height="7.22" style="fill:#263238;stroke:#263238;stroke-linecap:round;stroke-linejoin:round;stroke-width:0.8830859999999999px"></rect><rect x="186.41" y="34.56" width="3.12" height="9.44" style="fill:#263238;stroke:#263238;stroke-linecap:round;stroke-linejoin:round;stroke-width:0.8830859999999999px"></rect><path d="M317.39,259.46h0a2.27,2.27,0,0,1-2.27-2.27V250a2.27,2.27,0,0,1,2.27-2.27h0a2.27,2.27,0,0,1,2.27,2.27v7.2A2.27,2.27,0,0,1,317.39,259.46Z" style="fill:#263238"></path><path d="M317.4,261.09a4,4,0,0,1-4-4V253.7a.41.41,0,0,1,.42-.41.41.41,0,0,1,.41.41v3.38a3.19,3.19,0,0,0,6.37,0V253.7a.41.41,0,0,1,.41-.41.41.41,0,0,1,.42.41v3.38A4,4,0,0,1,317.4,261.09Z" style="fill:#263238"></path><path d="M317.4,265.41A.41.41,0,0,1,317,265v-4.32a.42.42,0,1,1,.83,0V265A.41.41,0,0,1,317.4,265.41Z" style="fill:#263238"></path><path d="M320.17,265.63h-5.53a.41.41,0,0,1-.42-.41.42.42,0,0,1,.42-.42h5.53a.42.42,0,0,1,.42.42A.41.41,0,0,1,320.17,265.63Z" style="fill:#263238"></path><path d="M159.66,314.93s.44,2.26.87,2.37,4.65-.11,4.75-1.19-2.16-1.73-2.16-1.73Z" style="fill:#fff;stroke:#263238;stroke-linejoin:round"></path></g><g id="freepik--character-4--inject-33"><path d="M385.21,316.65l1.43-.62a1.37,1.37,0,0,1,1.63.43l3.17,4.26c.55-.71,1.22-1.46,1.74-2l.12-.08a1.5,1.5,0,0,1,1.5.26,1.54,1.54,0,0,1,.49,1.35,37.89,37.89,0,0,1,2.79,5.08c.47.75,7.81,7.31,12.63,11.54l.24.15a8.59,8.59,0,0,1-.51-7c1.15-3,3-12.93,3.12-13.87-.1-.32-.2-.6-.29-.85a3.52,3.52,0,0,1-1.84,1.3c-1.92.35-3-.69-3.83-1.22s-2.61.35-4.35,0-1.39-1.91-2.09-2.78-1.91,1.39-3.31,0-6.09-6.44-5-12.35,6.61-12,6.61-12h0a10.18,10.18,0,0,1,4.33-2.78c4.52-1.56,10.79-1.73,15.83,2.44s5.92,12.7,7.66,17.23,2.78,7.48,2.44,9.05c-.26,1.13-2.89.07-4.65-.53a60.07,60.07,0,0,1,5.4,12.9c.78,2.58,1.74,6.57,2.86,11.8a72.32,72.32,0,0,1,2.74,13.44c1.22,3.62,2.41,7.22,3.38,10.14,1.17,3.51,2,6.05,2.21,6.6.64,1.75,2,6,2.24,6.71,2.34,1.76,3.52,2.87,3.52,3.32a5,5,0,0,1-.93,2.18l.89,2,14.31,16,3.84-.34a.32.32,0,0,1,.32.21L475.06,427a.34.34,0,0,1,0,.26.3.3,0,0,1-.23.14l-7.74.78.93,3.61-30.67,2.73.61,2.24,1.73,6.24h0L443,453.44c.48.49,2.23,2.34,2.12,3.42a.8.8,0,0,1-.35.61,7.62,7.62,0,0,0-1.29,1.27c-.73.83-1.41,1.61-2.13,1.73a6.42,6.42,0,0,1-.89,0c-1.67,0-4.86-.26-5.53-.82a.53.53,0,0,1-.2-.4c0-.61.93-1.14,2.36-1.89.44-.24.86-.46,1.07-.61a8.45,8.45,0,0,0,1.39-1.63C438.37,452.72,425.07,424.5,423,420a2.2,2.2,0,0,0-.09-.21l-.05-.12-.11-.24c-.37-.9-1-6.16-1.55-12l-7.53,48.5c-.24,5.11-.95,5.2-1.18,5.23h0c-.19,0-10.72-1.3-11.12-2.53a.42.42,0,0,1,0-.37c.5-.93,6.3-2.51,8.41-3.07,0-1,0-4.1-.08-8.52,0-4.17-.2-21.41-.14-35.35v-1c0-6.5.12-12,.28-15.16v0c0-.15,0-.29,0-.42v-.14c0-.11,0-.22,0-.32a1.09,1.09,0,0,0,0-.18,2.12,2.12,0,0,0,0-.24,1.8,1.8,0,0,0,0-.22c0-.05,0-.11,0-.16a3.11,3.11,0,0,1,0-.32c.57-4.37,2.6-15.73,3.92-22.94a3.65,3.65,0,0,1-1.52.56.61.61,0,0,1-.24,0,.57.57,0,0,1-.4-.37c-.32-.8.11-2.8.82-5.75l.21-.88c.68-2.91,1.89-11.54,1.9-11.58a31.91,31.91,0,0,0-.66-4.45.52.52,0,0,1-.33.28h-.06c-.5,0-1.84-1.43-10.34-11.42-3.37-4-7.2-8.46-7.64-8.73s-1.78-.66-2.71-1l-.18.16a1.28,1.28,0,0,1-1.86-.17l-1.19-1.52a1.4,1.4,0,0,1,.1.36.2.2,0,0,1-.08.21.24.24,0,0,1-.14.05h-.08c-.27-.09-2.72-.93-3.1-1.87a14.74,14.74,0,0,1-.53-3,.22.22,0,0,1,.13-.23.26.26,0,0,1,.15,0l-1.57-2A1.36,1.36,0,0,1,385.21,316.65Zm1.72,7.17c.2.49,1.42,1.09,2.38,1.45a21.18,21.18,0,0,0-2.81-3.65A10.72,10.72,0,0,0,386.93,323.82Zm50.25,79.43,2-.22.33-2.09a.33.33,0,0,1,.28-.26l.82-.07L444,382.53c-.26-.33-.5-.62-.6-.76a3.71,3.71,0,0,1-1.81-1.48,11.26,11.26,0,0,1-1.27-4.11c-.15-.38-1.92-5-4-9.71,0,2.16-.06,3.2-.06,3.21a.33.33,0,0,1-.18.27.31.31,0,0,1-.32,0l0,0A14.21,14.21,0,0,1,433,376.1l-1.72,36.54,4,14.45,0-.23Zm7.37-20.1-3.34,17.41,1.28-.11,2.39-16.92Zm1.47-1.92h0v0Zm.46,1.45a2.54,2.54,0,0,1,0,.36.29.29,0,0,1,0,.13c0,.12-.27.75-.74.86l-.13,0a.78.78,0,0,1-.21,0l-2.32,16.38,10.95-1-7.23-16.35Zm1.69,1.89,6.55,14.8,6.18-.54Z" style="fill:#263238"></path></g><g id="freepik--character-3--inject-33"><path d="M167.08,434.05a7.12,7.12,0,0,0-1.73-1.55,4.79,4.79,0,0,1-2.12-2.4,10.74,10.74,0,0,0-.82-1.88c1.13-1.22,2.24-3.15,2.2-4.3a1.07,1.07,0,0,0-.4-.94c-.39-.23-.9,0-1.59.41a11.38,11.38,0,0,1-1.16.58,7.74,7.74,0,0,1-1.39.42c-.23-.35-.4-.58-.42-.62a.26.26,0,0,0-.13-.1c-.06,0-.63-.28-1.52-.58a5.35,5.35,0,0,0,1.82-2.34c.26-.89.15-1.56-.29-1.77-.21-.11-.76-.23-1.53.8a12.62,12.62,0,0,1-3.54,2.38,19.18,19.18,0,0,0-4.08-.32c-.8-.46-3.67-2-5.33-2-1.19-1.12-4.18-3.84-5.21-3.84a1.87,1.87,0,0,0-.82.17L97.59,387.36a4.41,4.41,0,0,0,1.52-2c.52-2.06-1-6.14-2.21-6.75l-1-.51a.28.28,0,0,0-.28,0l-.29.17a6.59,6.59,0,0,0-.59-1.36c-.36-.54-1.65-2-2.45-2.9a1.45,1.45,0,0,0,.44-1.11c-.15-.58-1.49-2.33-3.68-5.14-1.39-1.79-2.83-3.64-3.28-4.43-.64-1.11-3-6.29-4.67-10-.22-1-.45-2.13-.68-3.26l5-3.18,3.32-2.13L96.59,343a.18.18,0,0,0,.1,0c.23-.15.87-.92-.39-4.45-.17-.48-.35-.94-.52-1.4,2.29-1,7.73-3.59,8.38-4.24s2.14-4.26,2.35-4.8c.19-.28.87-1.32.71-1.95a.66.66,0,0,0-.36-.42,1.32,1.32,0,0,0-.52-.08l3-3.86a1.39,1.39,0,0,0-.54-2.14l-1.47-.64a1.4,1.4,0,0,0-1.68.45l-3.26,4.37a1.6,1.6,0,0,0-.68-.41c-.87-.29-1.81.93-2.09,1.33A10,10,0,0,0,96,327.65a4.38,4.38,0,0,0-1,2.77,2.08,2.08,0,0,1-.08.64,6.36,6.36,0,0,1-1.82,1.82,1.5,1.5,0,0,0-1.27-.17c-1.1.15-8.26,3.84-13.7,6.71l-3.1-14.74.52-.17a.57.57,0,0,0,.34-.31c.37-.83-.71-3.43-.93-3.94a.24.24,0,0,0-.06-.09l-3.41-3.6.87-.57a9,9,0,0,1,4.88-1.27c2,1.13,4.64,1.69,5.5.51.68-.94,1.67-4,2.42-7.42a2,2,0,0,0,2-1c.57-1.05-.49-3.48-1-4.56.12-1,.22-2,.29-2.91A15.19,15.19,0,0,0,86,294l.2.05c3,.79,6.17.79,5.38-3.33s-4-3.32-5.54-3.32,1.59-3-1.74-4.12-4,.79-4.27,1.9-1.9,1.11-3.33,1.11-2.84-1.74-8.23.32-6.33,9.18-5.06,13.45c1.21,4.1,1.92,6.18,4.11,7.24,0,0,0,0,0,.06a16.83,16.83,0,0,1-2.66,4.26,4.89,4.89,0,0,0-1.08-.86h0c-1.42-.57-3.07,2.32-3.39,2.91a.32.32,0,0,0,0,.14c-2.83,3-6.7,8.12-7.79,14-1.75,9.47-4,43.69-4,44a.3.3,0,0,0,.22.31s1.32.36,3.38.82a22.55,22.55,0,0,0,.72,6.18c1.26,4.52,3.27,8.55,3.27,9.3s-1.51,22.63-1.76,23.38-16,36.17-17,39.7a.29.29,0,0,0-.28.08c-.85,1-3.6,4.23-3.34,5.3.31,1.24,4.61,3.25,6.54,3.49a24.43,24.43,0,0,0,3,.16c2,0,4.11-.18,5-.7a.65.65,0,0,0,.38-.6c0-.54-.78-.92-2.12-1.53a8.41,8.41,0,0,1-2-1.1c-1-1-2.83-2.6-3.06-2.8,2.21-3.06,25-34.79,26.23-36.46.45-.64,1.34-5.2,2.32-10.83l1.7,6.05s1,11.31,3.27,17.85c2.09,6.06,6.35,21.82,7,24.1a.3.3,0,0,0-.22.24c-.08.47-.75,4.67,0,6,.08.14.21.36,1,.36a20.15,20.15,0,0,0,4.81-.94,77.51,77.51,0,0,0,7.74-2.66,16.74,16.74,0,0,0,1.54,3.12.91.91,0,0,0,.57.22h.15c1.12-.23,1-4.78.47-12.49,0-.35,0-.6,0-.68a8,8,0,0,1,2.4-.71l1.28-.28a4.89,4.89,0,0,0-.92,2.91c.31,1.52,2.55,7.84,3.64,9.1a4.8,4.8,0,0,0,3.81,1.72h.26c1.52-.05,1.72-.33,2-1.17l0-.11c.2-.7-.68-1-1.54-1.28a3.28,3.28,0,0,1-1.34-.64,27.18,27.18,0,0,1-2.17-6.58c0-.4.7-1.23,1.53-2.19a22.27,22.27,0,0,0,4.39-6.73,8.86,8.86,0,0,0,.7-3.94,21.62,21.62,0,0,1,3.81,2.14c3.32,2.24,10,3.84,15.78,4a27.42,27.42,0,0,0,.87,3.27,32,32,0,0,0,2.06,4.33,11.2,11.2,0,0,1-2.18,1.06,7.06,7.06,0,0,0-2-.4.5.5,0,0,0-.48.57c0,.82,1.39,2.71,2.57,2.71h.05a13.44,13.44,0,0,0,3.66-1.21c1.56,2.54,3.37,5.71,4.21,6.09a9.93,9.93,0,0,0,3.62.93,2.56,2.56,0,0,0,1.07-.2,1.31,1.31,0,0,0,.75-.86,2.15,2.15,0,0,0,0-1.76c-.25-.38-.73-.57-1.58-.82l-1.41-.41c-.26-.44-1.51-3.21-2.55-5.31,1.53-1.31,1.06-2.46.34-4.16l-.13-.3c-.43-1-1-2.93-1.51-4.52a8.73,8.73,0,0,0,4.9-4.34l1.9-1.16c.87.92,3,.87,12.34-.08a4.47,4.47,0,0,1,1.88.55,5.14,5.14,0,0,0,2,.43,4.9,4.9,0,0,0,.77-.06l2.74-.43a.24.24,0,0,0,.14,0C165.75,437.7,168.3,435.74,167.08,434.05Zm-66.43-13.34a1.74,1.74,0,0,1,.4-1.8A2.53,2.53,0,0,1,104,418a3.44,3.44,0,0,1,1.55,1.24,14.57,14.57,0,0,0-1.67.2A9.32,9.32,0,0,0,100.65,420.71ZM76.21,375.18c2.14-.09,3.49-.23,3.52-.23a.29.29,0,0,0,.27-.3s0-.36,0-1.11l.82.23H81a5.35,5.35,0,0,1,.32,1.24c0,1.36,3.3,4.07,4,4.6a.33.33,0,0,0,.38,0l.18-.15c.32.8.74,1.87.88,2.31a6.54,6.54,0,0,0,.62,1.29c-.71.53-1.8,1.57-1.39,2.82.56,1.67,3.46,3.76,5.07,4.29a1.51,1.51,0,0,0,.5.07A9.06,9.06,0,0,0,95.2,389a14.61,14.61,0,0,0,1.9-1.23l41.46,28.78a.7.7,0,0,0-.08.1,1.15,1.15,0,0,0,.17,1.23,14.84,14.84,0,0,0,2.81,2,9.18,9.18,0,0,0-1.9.3c-.83.24-5.49,1.46-16.21,1.87A30.44,30.44,0,0,1,113,420.45l-.1,0a9,9,0,0,0-.07-4.08c-.85-3.32-4.85-9.15-9.46-8.42a9.69,9.69,0,0,0-6.77,4.17,6.61,6.61,0,0,0-.39,5.8c1.87,5.2.11,7.48.09,7.5a.35.35,0,0,0-.06.24,16.67,16.67,0,0,0-1.94,8.61,17.14,17.14,0,0,0,1.59,5.56c.56,1.26.93,2.09.54,2.73-.24.39-.64.4-1.27.37a2.17,2.17,0,0,0-1.75.46c-.51.52-.72,1.47-.66,3a37.37,37.37,0,0,0,1.45,8.23c-1.85-.49-4.25-.93-6.43-1.29h-.08c-.33-3.47-3.49-37.14-3.49-41.19,0-4.28-8.3-32.94-8.3-34.45A19.83,19.83,0,0,1,76.21,375.18Z" style="fill:#263238"></path></g><g id="freepik--character-2--inject-33"><path d="M334.75,384.37s-2.24,20.42-2.94,21.68-4.75,6.29-6,10.77-9.65,30.07-9.65,30.07l-2.1,4.62-.56,7.55,1.12.42,1.82-3.91a3.37,3.37,0,0,1,2.66,1.95c1.12,2,1.12,2.66,4.06,2.94s7.69.56,8.39-.28.42-1.4,0-1.68-3.78-2.1-3.78-2.1l-4.47-7.83.41-3.5s16.79-30.07,18.74-32.59,7.42-14.26,7.42-14.26Z" style="fill:#fff;stroke:#263238;stroke-linejoin:round"></path><path d="M349.86,398.22l-15.11-13.85s-2.24,20.42-2.94,21.68-4.75,6.29-6,10.77c-.38,1.34-1.39,4.57-2.63,8.43a39.08,39.08,0,0,0,9.83,3.31c4.23-7.46,8.51-14.88,9.44-16.08C344.4,410,349.86,398.22,349.86,398.22Z" style="fill:#757575;stroke:#263238;stroke-linejoin:round"></path><path d="M331.54,460.18c.7-.84.42-1.4,0-1.68s-3.78-2.1-3.78-2.1l-2.1,1.26a8.5,8.5,0,0,1-3.77-1c-1.68-1-2.8-2.37-4.34-4.61a29.84,29.84,0,0,0-2.37-3l-1.13,2.47-.56,7.55,1.12.42,1.82-3.91a3.37,3.37,0,0,1,2.66,1.95c1.12,2,1.12,2.66,4.06,2.94S330.84,461,331.54,460.18Z" style="fill:#263238;stroke:#263238;stroke-linejoin:round"></path><path d="M331.81,358.49s-4.75,10.07-3.36,16.79,12,17.48,12.73,18.74,11.48,14.27,11.48,14.27-.28,12,3.77,18.74,12.73,20.7,12.73,20.7-.56,4.33-.28,4.75,2,7.42,2,7.42H372l.28-3.92s3.08,2.8,3.92,3.5,8.53.14,10.07-.14,4-1.26,3.08-1.68a67.6,67.6,0,0,1-5.88-3.36c-1.26-.84-5.32-6-6.85-7.83s-5.6-14.69-8.26-21.26-6-16.64-6-19.16-6.58-25.32-6.58-25.32,2.38-10.21,2.1-15.52-21.4-8-22-8.12S331.81,358.49,331.81,358.49Z" style="fill:#fff;stroke:#263238;stroke-linejoin:round"></path><path d="M356.26,426.73c1.54.13,5.28-.06,11.42-3.15-2.53-6.5-5.37-15.21-5.37-17.53,0-2.52-6.58-25.32-6.58-25.32s2.38-10.21,2.1-15.52-21.4-8-22-8.12-4.06,1.4-4.06,1.4-4.75,10.07-3.36,16.79,12,17.48,12.73,18.74,11.48,14.27,11.48,14.27S352.39,420,356.26,426.73Z" style="fill:#757575;stroke:#263238;stroke-linejoin:round"></path><line x1="355.73" y1="380.73" x2="351.77" y2="371.18" style="fill:none;stroke:#263238;stroke-linejoin:round"></line><path d="M389.31,457.66c-.83-.35-3.52-1.89-5.11-2.87L382,457a15.74,15.74,0,0,1-6.29-1.54,38.27,38.27,0,0,1-6.84-5.23,7.61,7.61,0,0,0,0,2.29c.28.42,2,7.42,2,7.42H372l.28-3.92s3.08,2.8,3.92,3.5,8.53.14,10.07-.14S390.28,458.08,389.31,457.66Z" style="fill:#263238;stroke:#263238;stroke-linejoin:round"></path><path d="M332.09,360.17s14.27,5.6,17.9,5.6a72.73,72.73,0,0,0,7.84-.56l1.12-4.34s.13-11.75-.29-15.67S355.73,328,355.31,326,351,311.91,351,311.91l-14.69.15-.13,36.5Z" style="fill:#fff;stroke:#263238;stroke-linejoin:round"></path><path d="M351.47,303.7a55.89,55.89,0,0,1,3.69,4.52c1.1,1.66,4.51,2.95,4.51,2.95s.74,2.85,1.76,7.37-.37,11.52.37,14.1,5.89,7.83,6.72,7,3.69-11.89,2.67-14.56-7.28-14.37-7.28-15-.83-7.19-1.2-7.65a5.53,5.53,0,0,1-.64-1.19l-8.66.73Z" style="fill:#fff;stroke:#263238;stroke-linejoin:round"></path><polygon points="353.22 303.7 359.31 306.93 362.07 301.22 355.34 298.18 353.22 303.7" style="fill:#263238;stroke:#263238;stroke-linejoin:round"></polygon><path d="M358.94,297.9s-.83-1.84-1.57-1.38-2.21,3.59-1.94,4l.28.37Z" style="fill:#fff;stroke:#263238;stroke-linejoin:round"></path><path d="M360.59,298.91s-.82-1.47-1.65-1-2.4,2.67-2.12,3a3.65,3.65,0,0,0,1.19.74Z" style="fill:#fff;stroke:#263238;stroke-linejoin:round"></path><path d="M362.07,301.22l-1.48-2.31s-2.85,2.12-2.58,2.77,2.77-.83,2.77-.83Z" style="fill:#fff;stroke:#263238;stroke-linejoin:round"></path><path d="M348.32,309.34s2.65,7.05,3.77,10a100.46,100.46,0,0,1,5.18,19.16c1.53,9.23,1.68,22.38,1.68,22.38s5-1.26,5-2.38-4.48-21.12-4.48-21.12l9,2.27-3.14-12.48-7-4.76s-2.24-8.81-3.07-10.21S348.32,309.34,348.32,309.34Z" style="fill:#263238;stroke:#263238;stroke-linejoin:round"></path><path d="M361.81,323.36c0,3.68-.52,7.51,0,9.28.73,2.58,5.89,7.83,6.72,7s5.33-.38,2.67-14.56a12.37,12.37,0,0,0-1-2.26l-4.23,1.68Z" style="fill:#263238;stroke:#263238;stroke-linejoin:round"></path><path d="M360.48,321s5.32,1,5.74,1a42,42,0,0,0,4.47-2.65l1.68,5.45-6.43,3.64-5.32-2.24Z" style="fill:#fff;stroke:#263238;stroke-linejoin:round"></path><path d="M337.5,298.6l2.1,1.62a9.59,9.59,0,0,1-.39,4c-.66,1.45-3.17,6.2-3.17,6.2s5.15,6.34,7.39,7.53,7,2.77,7.14,2.38a16.91,16.91,0,0,0,.39-3.57c0-1.45-2.64-7.39-2.64-7.39l2.24-5.15s3.44.79,4-.14,2.64-6.2,2.64-6.2,1.45-.4.79-1.59-2.25-2.51-2.25-2.9.66-3.7.66-4.89-2.23-5.4-2.23-5.4L337,296Z" style="fill:#fff;stroke:#263238;stroke-linejoin:round"></path><polygon points="352.46 280.56 332.46 291.05 337.5 298.6 354.14 283.07 352.46 280.56" style="fill:#fff;stroke:#263238;stroke-miterlimit:10"></polygon><path d="M352.47,280.56a17.62,17.62,0,0,0-.72-7.14c-1.19-3-6.07-4.23-5.94-3.44s.39,1.72.39,1.72-10.82-1.32-13.2.53-8.58,9.77-7.92,12.28,2.64,1.59,2.64,1.59-.93.92.39,2.77,5.15,1.58,5.15,1.58Z" style="fill:#263238;stroke:#263238;stroke-miterlimit:10"></path><path d="M351.09,297.45s.27,1.58,2.51,1.85" style="fill:none;stroke:#263238;stroke-linejoin:round"></path><path d="M354.35,292.56c0,.66-.34,1.19-.77,1.19s-.77-.53-.77-1.19.34-1.19.77-1.19S354.35,291.9,354.35,292.56Z" style="fill:#263238"></path><path d="M352.15,290.19s1.32-1.32,2.64-.4" style="fill:none;stroke:#263238;stroke-linejoin:round"></path><path d="M340.13,296.53a4,4,0,0,0,1.06.92,3.51,3.51,0,0,0,1.72,0l1.84,2.64" style="fill:none;stroke:#263238;stroke-linejoin:round"></path><path d="M337.89,306.83l-3.7,1.45-9.38,2.11s-6.73,38.56-5.93,39,14.79-2.77,14.79-2.77L329.31,359s10.7,4.49,12.68,4.75,9.64.27,9.64.27-1.46-25.62-3.57-34.34a92.07,92.07,0,0,0-5.95-17.56A34.51,34.51,0,0,0,337.89,306.83Z" style="fill:#263238;stroke:#263238;stroke-linejoin:round"></path><polygon points="330.23 339.84 331.42 349.88 337.36 348.69 336.17 338.52 330.23 339.84" style="fill:#fff;stroke:#263238;stroke-linejoin:round"></polygon><path d="M336.17,339.84l5.15-2.38,4.36-7.26,8.85-1.06-.27,1.32-5.41.8.13,1.32,6.08-.8V333l-5.95,1.85,4.89.27-.66,1.45-4.09.13,4,1.72-.79.92-5.29-.66s-.92,2.11-2.37,2.51-3.17.79-3.17.79l-4.89,3.44Z" style="fill:#fff;stroke:#263238;stroke-linejoin:round"></path><path d="M327.72,339.71l-2.37,14.53,1.58-.14L329,340.39c.1-.72,0-.66-.67-.89Z" style="fill:#fff;stroke:#263238;stroke-linejoin:round"></path><path d="M316.63,351.07l9.77,1.84,15.85.14,1.06,18.88-17.3.13c-.53,0-12.94-2.77-12.94-2.77Z" style="fill:#fff;stroke:#263238;stroke-linejoin:round"></path><path d="M326,372.06l17.3-.13-1.06-18.88L340.93,366s-8.06,1.05-13.47.13S317,363.88,317,363.88l-.4-12.81-3.56,18.22S325.48,372.06,326,372.06Z" style="fill:#787878;stroke:#263238;stroke-linejoin:round"></path></g><g id="freepik--character-1--inject-33"><path d="M197.53,451s-2.52,4.09-3.15,4.72-3.93,2.52-4.4,3.3-.32,1.58,1.1,1.74a75.8,75.8,0,0,0,11.8-1c1.42-.47,8.18-7.4,8.34-7.87s-3.36-5.55-3.36-5.55Z" style="fill:#fff;stroke:#263238;stroke-linejoin:round"></path><path d="M151.63,342.17s-9.91-.95-10.48-1.14-2.48-4.19-3-4.48a36.68,36.68,0,0,1-3.43-1.52,8.18,8.18,0,0,1-2.1-2.57c-.38-.57-1.61-.38-1.42.47a8.3,8.3,0,0,0,1.33,2.29l-1.91,1.33s3.43,8.76,4.67,8.86,5.81.09,5.81.09L153.34,351Z" style="fill:#fff;stroke:#263238;stroke-linejoin:round"></path><path d="M125.5,329.28,134,343.79l2.28-.38-8.37-14.59a.33.33,0,0,0-.3-.16l-1.86.14A.33.33,0,0,0,125.5,329.28Z" style="fill:#fff;stroke:#263238;stroke-linejoin:round"></path><path d="M131.34,340.84s.38,1.71.67,1.9,3.43-.85,3.52-1.71-.86-1.43-.86-1.43S132.2,341,131.34,340.84Z" style="fill:#fff;stroke:#263238;stroke-linejoin:round"></path><path d="M132,342.74s.76,1.53,1.43,1.53,3.14-.57,2.95-1.62a2.94,2.94,0,0,0-.86-1.62Z" style="fill:#fff;stroke:#263238;stroke-linejoin:round"></path><path d="M142.13,276.93s-3.78,1.73-3.78,2.51v.79s.63,6.14.94,7.24,1.74,4.09,1.74,4.88-1.26,3.14-1.11,3.62,3,1.1,3,1.1,2.37,6.13,3.31,6.13,5-2,5-2l3.78,7.55.47,2.83,9.6-7.86L159.44,295s3.93-5,2.83-10.86-1.42-9.44-7.87-9.91A25.17,25.17,0,0,0,142.13,276.93Z" style="fill:#fff;stroke:#263238;stroke-linejoin:round"></path><path d="M154.4,274.25a25.17,25.17,0,0,0-12.27,2.68s-3.78,1.73-3.78,2.51v.79s.07.7.18,1.67l.13.06,7.4-3.62s-2.05,3.31-.63,4.09a31.35,31.35,0,0,0,4.88,1.73s.94,4.41,1.57,3.78-.31-1.26,1.42-2.05,3.93,1.42,3.93,3.47-2.67,2.83-2.67,2.83l4.88,2.83s3.93-5,2.83-10.86S160.85,274.72,154.4,274.25Z" style="fill:#263238;stroke:#263238;stroke-linejoin:round"></path><path d="M143.23,291.25a4.25,4.25,0,0,0,2.52-.79" style="fill:none;stroke:#263238;stroke-linejoin:round"></path><path d="M142.28,288.41a3.06,3.06,0,0,1,3.15-.15" style="fill:none;stroke:#263238;stroke-linejoin:round"></path><path d="M164.47,302.57S156,308.08,153,313.12s-4.25,8.34-3.94,11.33S151.57,352,151.57,352s-1.57,11.48-1.88,12.11-1.42,4.25-1.42,4.25,3,2.2,13.06,3.3,20.46-1.57,20.46-1.57l-3.15-16.68s.15-31.63-1.11-35.41-3.3-8.49-6.13-11A33.16,33.16,0,0,0,164.47,302.57Z" style="fill:#263238;stroke:#263238;stroke-linejoin:round"></path><path d="M166.68,303.78s-6,5.2-6.94,11.35,0,10.71,2.37,14.34a34,34,0,0,0,6,6.61L175,344l-1.57,12.92s7.56,6.78,11.18,6.14,7.09-1.1,8.83-3a12.49,12.49,0,0,0,3.46-8.67,39.33,39.33,0,0,0-1.26-7.56s3.15-.31,1.73-4.41-8.19-14.65-8.82-15.6-8.35-6.46-8.35-6.46L173,308.67S170.46,303.15,166.68,303.78Z" style="fill:#fff;stroke:#263238;stroke-linejoin:round"></path><path d="M148.27,368.35s-8.34,19.83-9.12,30.21-4.72,37.61-4.72,37.61L130,446.56l10.7,6,2.05.94s4.56-17.94,5.35-20.3,7.71-29.42,7.71-29.42l3.77-11.18s13.85,24.71,15.42,26.59,21.88,28,22.19,28.8a12.38,12.38,0,0,1,.32,3l6-2.52,4.35-2.09-3.41-11.6s-16.68-21.56-16.84-22.34S179.74,389,179.74,389s.32-5.19.47-6.92,2.36-11,1.58-12l-.79-.95-30.06-1.25Z" style="fill:#fff;stroke:#263238;stroke-linejoin:round"></path><line x1="159.6" y1="392.58" x2="156.45" y2="384.56" style="fill:none;stroke:#263238;stroke-linejoin:round"></line><path d="M130,446.56l-3.3,2.2s-9.6-1.1-10.39-.16-.15,2.68,3.15,4.73,8.66,4.4,10.39,4.72,9.12,2.51,10.54,2.2,2.36-6.77,2.36-6.77Z" style="fill:#fff;stroke:#263238;stroke-linejoin:round"></path><path d="M178.32,327.12s2.38,12.11,2.38,14.63,11,3.47,13.4,3.31" style="fill:none;stroke:#263238;stroke-linejoin:round"></path><path d="M170.14,307c2.06,2,6.61,4.88,7.39,11a80.86,80.86,0,0,1,.79,9.13L165,328.54s-2.21-7.87-2.84-11.17,4.25-9.29,4.25-9.29S169,305.92,170.14,307Z" style="fill:#263238;stroke:#263238;stroke-linejoin:round"></path><path d="M165,328.54l4.25,13.37s-2.36,6.45-3.15,9.6-2.36,14.95-2.36,14.95L162,370.4l7.24,7.23a26.9,26.9,0,0,0,.63-5.35c-.16-1.57-.47-4.72-.47-4.72s9.75-21.4,10.22-22.82-1.26-17.62-1.26-17.62Z" style="fill:#fff;stroke:#263238;stroke-linejoin:round"></path></g><g id="freepik--Icons--inject-33"><circle cx="129.56" cy="185.04" r="14.82" transform="translate(-38.82 34.47) rotate(-13.2)" style="fill:none;stroke:#263238;stroke-linecap:round;stroke-linejoin:round"></circle><polyline points="124.89 191.11 129.56 185.04 129.56 174.18" style="fill:none;stroke:#263238;stroke-linecap:round;stroke-linejoin:round"></polyline><rect x="369.67" y="107.89" width="52.45" height="33.66" style="fill:none;stroke:#263238;stroke-miterlimit:10"></rect><polyline points="369.67 107.89 395.46 129.75 421.75 108.2" style="fill:none;stroke:#263238;stroke-miterlimit:10"></polyline><line x1="369.67" y1="141.55" x2="388.46" y2="124.5" style="fill:none;stroke:#263238;stroke-miterlimit:10"></line><line x1="422.12" y1="141.55" x2="402.45" y2="124.5" style="fill:none;stroke:#263238;stroke-miterlimit:10"></line><path d="M433.64,43.57c-10.81,0-19.58,7-19.58,15.67,0,5.6,3.67,10.49,9.19,13.26l-3.32,8.29,10.47-6.11a24.71,24.71,0,0,0,3.24.23c10.82,0,19.59-7,19.59-15.67S444.46,43.57,433.64,43.57Z" style="fill:none;stroke:#263238;stroke-linecap:round;stroke-linejoin:round"></path><circle cx="426.83" cy="58.67" r="1.95" style="fill:none;stroke:#263238;stroke-linecap:round;stroke-linejoin:round"></circle><path d="M435.59,58.67a1.95,1.95,0,1,0-1.95,1.95A1.94,1.94,0,0,0,435.59,58.67Z" style="fill:none;stroke:#263238;stroke-linecap:round;stroke-linejoin:round"></path><circle cx="440.45" cy="58.67" r="1.95" style="fill:none;stroke:#263238;stroke-linecap:round;stroke-linejoin:round"></circle><path d="M396.11,38.39c8.48,0,15.35,5.5,15.35,12.28,0,4.38-2.88,8.21-7.2,10.39l2.59,6.49-8.2-4.79a19.22,19.22,0,0,1-2.54.18c-8.47,0-15.34-5.49-15.34-12.27S387.64,38.39,396.11,38.39Z" style="fill:none;stroke:#263238;stroke-linecap:round;stroke-linejoin:round"></path><path d="M391.94,50.67a1.73,1.73,0,1,0-1.73,1.73A1.74,1.74,0,0,0,391.94,50.67Z" style="fill:none;stroke:#263238;stroke-linecap:round;stroke-linejoin:round"></path><circle cx="396.26" cy="50.67" r="1.73" style="fill:none;stroke:#263238;stroke-linecap:round;stroke-linejoin:round"></circle><circle cx="402.32" cy="50.67" r="1.73" style="fill:none;stroke:#263238;stroke-linecap:round;stroke-linejoin:round"></circle><rect x="52.41" y="103.1" width="77.51" height="48.17" style="fill:none;stroke:#263238;stroke-linecap:round;stroke-linejoin:round"></rect><rect x="52.41" y="144.77" width="77.51" height="6.5" style="fill:none;stroke:#263238;stroke-linecap:round;stroke-linejoin:round"></rect><polygon points="101.9 126.36 84.31 116.2 84.31 136.52 101.9 126.36" style="fill:none;stroke:#263238;stroke-linecap:round;stroke-linejoin:round"></polygon><path d="M145,230H116.14a4.7,4.7,0,0,0-4.71,4.7v16.68a4.7,4.7,0,0,0,4.71,4.7H128l2.64,4.57,2.63-4.57H145a4.69,4.69,0,0,0,4.7-4.7V234.74A4.69,4.69,0,0,0,145,230Z" style="fill:none;stroke:#263238;stroke-miterlimit:10"></path><path d="M141.29,240.48a5.42,5.42,0,0,1-1.58,3.83l-1.43,1.43-7.66,7.65L123,245.74l-1.43-1.43a5.41,5.41,0,1,1,7.65-7.65l1.43,1.43,1.43-1.43a5.41,5.41,0,0,1,9.24,3.82Z" style="fill:none;stroke:#263238;stroke-miterlimit:10"></path><path d="M65.28,228.63a9.6,9.6,0,0,0,9.6-9.6V188.58a9.61,9.61,0,1,0-19.21,0V219A9.6,9.6,0,0,0,65.28,228.63Z" style="fill:none;stroke:#263238;stroke-linecap:round;stroke-linejoin:round"></path><path d="M82.33,218.56V204.27a1.76,1.76,0,1,0-3.51,0v14.29a13.47,13.47,0,0,1-26.93,0V204.27a1.76,1.76,0,1,0-3.52,0v14.29A17,17,0,0,0,63.6,235.45v15.78h-10a1.76,1.76,0,0,0,0,3.51H77.06a1.76,1.76,0,1,0,0-3.51h-10V235.45A17,17,0,0,0,82.33,218.56Z" style="fill:none;stroke:#263238;stroke-linecap:round;stroke-linejoin:round"></path><path d="M457.69,147.62a14.37,14.37,0,0,1,5,10.89c0,6.87-10.77,21.18-13.68,24.93,1.33,1.79,2.22,2.89,2.22,2.89s14.4-17.91,14.4-25.85A14.37,14.37,0,0,0,457.69,147.62Zm-6.48,7.86a5.93,5.93,0,0,1,1.13.12,5,5,0,1,0-5.19,7.78,5,5,0,0,1,4.06-7.9Z" style="fill:none;stroke:#263238;stroke-linecap:round;stroke-linejoin:round"></path><path d="M452.34,155.6a5,5,0,0,1-4.08,7.9,5.1,5.1,0,0,1-1.11-.12M449,183.44c-.46.6-.73.92-.73.92s-14.4-17.89-14.4-25.85a14.41,14.41,0,0,1,23.83-10.89" style="fill:none;stroke:#263238;stroke-linecap:round;stroke-linejoin:round"></path><g id="freepik--JKa6IG.tif--inject-33"><path d="M427,266.53c-1.49-.21-3-.37-4.49-.64-19.49-3.5-33.2-14.19-40.39-32.8a50.45,50.45,0,0,1-3.31-18.29,4.31,4.31,0,0,1,1.65-3.55c2.2-1.82,4.35-3.71,6.52-5.57q3-2.6,5.69.36l12.14,13.35c1.73,1.91,1.67,3.79-.18,5.58-2.58,2.5-5.14,5-7.73,7.51a1,1,0,0,0-.33,1.14,21.18,21.18,0,0,0,6.75,10.57,20.2,20.2,0,0,0,8.27,4.58,1.22,1.22,0,0,0,1.37-.36c2.46-2.58,5-5.12,7.44-7.68,1.78-1.83,3.68-1.89,5.59-.16l13.41,12.2c1.91,1.73,2,3.59.33,5.56s-3.49,4-5.2,6.09a6.48,6.48,0,0,1-2.62,2.11Z" style="fill:none;stroke:#263238;stroke-linecap:round;stroke-linejoin:round"></path><path d="M413.68,207.16v-6.72a30.42,30.42,0,0,1,31.26,31.22h-6.7C437.05,216.44,428.85,208.33,413.68,207.16Z" style="fill:none;stroke:#263238;stroke-linecap:round;stroke-linejoin:round"></path><path d="M413.73,221.28v-6.91c10.76-.4,17.67,6.31,17.29,17.29h-6.9C424.34,224.6,420.87,221.09,413.73,221.28Z" style="fill:none;stroke:#263238;stroke-linecap:round;stroke-linejoin:round"></path></g><g id="freepik--YL9phh--inject-33"><path d="M79.78,50.37c0-.29.07-.55.13-.8a3.62,3.62,0,0,1,3.51-2.76H94.9A3.61,3.61,0,0,1,98.45,50c0,.1,0,.21,0,.36h6.11a4.58,4.58,0,0,1,4.63,4.68q0,9.38,0,18.76a4.63,4.63,0,0,1-4.68,4.67H73.76a4.63,4.63,0,0,1-4.68-4.64q0-9.41,0-18.82a4.65,4.65,0,0,1,3.81-4.58,5.62,5.62,0,0,1,.92-.07h6Z" style="fill:none;stroke:#000;stroke-miterlimit:10"></path><path d="M98.62,64.46A9.47,9.47,0,1,1,89.19,55,9.45,9.45,0,0,1,98.62,64.46Z" style="fill:none;stroke:#000;stroke-miterlimit:10"></path><path d="M102.65,54.93a2,2,0,0,1,2,2,2,2,0,1,1-2-2Z" style="fill:none;stroke:#000;stroke-miterlimit:10"></path></g></g></svg>